<mxfile host="app.diagrams.net" modified="2023-02-13T10:22:41.168Z" agent="5.0 (Windows NT 10.0; Win64; x64) AppleWebKit/537.36 (KHTML, like Gecko) Chrome/109.0.0.0 Safari/537.36" etag="CsLUzVlSc27-teWdCm7M" version="20.8.16" type="github">
  <diagram name="第 1 页" id="m4VMJSR2iR4v2IWPt5Do">
    <mxGraphModel dx="1235" dy="674" grid="1" gridSize="10" guides="1" tooltips="1" connect="1" arrows="1" fold="1" page="1" pageScale="1" pageWidth="827" pageHeight="1169" math="0" shadow="0">
      <root>
        <mxCell id="0" />
        <mxCell id="1" parent="0" />
        <mxCell id="KR6OFvMDhqYmCtXjkQwM-2" value="" style="rounded=0;whiteSpace=wrap;html=1;strokeWidth=2;fillColor=#dae8fc;strokeColor=#6c8ebf;" vertex="1" parent="1">
          <mxGeometry x="24.17721518987342" y="548.2539682539682" width="651.6455696202531" height="82.85714285714285" as="geometry" />
        </mxCell>
        <mxCell id="KR6OFvMDhqYmCtXjkQwM-4" value="" style="rounded=0;whiteSpace=wrap;html=1;strokeWidth=2;fillColor=#dae8fc;strokeColor=#6c8ebf;" vertex="1" parent="1">
          <mxGeometry x="28.354430379746837" y="180" width="643.2911392405064" height="90.22222222222221" as="geometry" />
        </mxCell>
        <mxCell id="KR6OFvMDhqYmCtXjkQwM-5" value="　数据层" style="rounded=0;whiteSpace=wrap;html=1;strokeWidth=2;align=left;fontSize=14;fontStyle=1;fillColor=#dae8fc;strokeColor=#6c8ebf;" vertex="1" parent="1">
          <mxGeometry x="20" y="667.936507936508" width="660" height="92.06349206349205" as="geometry" />
        </mxCell>
        <mxCell id="KR6OFvMDhqYmCtXjkQwM-7" value="业务功能模块" style="rounded=0;whiteSpace=wrap;html=1;strokeWidth=2;verticalAlign=top;fontSize=14;fontStyle=1;fillColor=#dae8fc;strokeColor=#6c8ebf;" vertex="1" parent="1">
          <mxGeometry x="28.354430379746837" y="317.6349206349206" width="643.2911392405064" height="184.1269841269841" as="geometry" />
        </mxCell>
        <mxCell id="KR6OFvMDhqYmCtXjkQwM-10" value="作业" style="rounded=0;whiteSpace=wrap;html=1;dashed=1;strokeWidth=2;fillColor=#003B00;fontSize=14;fontColor=#FFFFFF;strokeColor=none;" vertex="1" parent="1">
          <mxGeometry x="86.41772151898735" y="349.3968253968254" width="142.02531645569618" height="42.34920634920635" as="geometry" />
        </mxCell>
        <mxCell id="KR6OFvMDhqYmCtXjkQwM-11" value="机队" style="rounded=0;whiteSpace=wrap;html=1;dashed=1;strokeWidth=2;fillColor=#003B00;fontSize=14;fontColor=#FFFFFF;strokeColor=none;" vertex="1" parent="1">
          <mxGeometry x="85.58227848101266" y="400.031746031746" width="142.02531645569618" height="42.34920634920635" as="geometry" />
        </mxCell>
        <mxCell id="KR6OFvMDhqYmCtXjkQwM-12" value="出版物" style="rounded=0;whiteSpace=wrap;html=1;dashed=1;strokeWidth=2;fillColor=#003B00;fontSize=14;fontColor=#FFFFFF;strokeColor=none;" vertex="1" parent="1">
          <mxGeometry x="86.41772151898735" y="450.2063492063492" width="142.02531645569618" height="42.34920634920635" as="geometry" />
        </mxCell>
        <mxCell id="KR6OFvMDhqYmCtXjkQwM-20" value="web" style="rounded=0;whiteSpace=wrap;html=1;dashed=1;strokeWidth=2;fillColor=#63BDEB;fontSize=14;fontColor=#FFFFFF;strokeColor=none;" vertex="1" parent="1">
          <mxGeometry x="53.41772151898734" y="209.46031746031747" width="601.5189873417722" height="47.873015873015866" as="geometry" />
        </mxCell>
        <mxCell id="KR6OFvMDhqYmCtXjkQwM-28" value="JCR" style="rounded=0;whiteSpace=wrap;html=1;strokeWidth=2;fontSize=14;fillColor=#f8cecc;strokeColor=#dae8fc;" vertex="1" parent="1">
          <mxGeometry x="412.65822784810126" y="562.063492063492" width="142.02531645569618" height="55.238095238095234" as="geometry" />
        </mxCell>
        <mxCell id="KR6OFvMDhqYmCtXjkQwM-32" value="" style="group" vertex="1" connectable="0" parent="1">
          <mxGeometry x="312.40506329113924" y="677.1428571428571" width="100.25316455696203" height="73.65079365079364" as="geometry" />
        </mxCell>
        <mxCell id="KR6OFvMDhqYmCtXjkQwM-33" value="本地文件存储" style="shape=datastore;whiteSpace=wrap;html=1;strokeWidth=1;fillColor=#ED6D18;fontSize=14;fontColor=#FFFFFF;verticalAlign=top;" vertex="1" parent="KR6OFvMDhqYmCtXjkQwM-32">
          <mxGeometry x="50.12658227848102" width="50.12658227848102" height="73.65079365079364" as="geometry" />
        </mxCell>
        <mxCell id="KR6OFvMDhqYmCtXjkQwM-34" value="本地文件存储" style="shape=datastore;whiteSpace=wrap;html=1;strokeWidth=1;fillColor=#ED6D18;fontSize=14;fontColor=#FFFFFF;verticalAlign=top;" vertex="1" parent="KR6OFvMDhqYmCtXjkQwM-32">
          <mxGeometry width="50.12658227848102" height="73.65079365079364" as="geometry" />
        </mxCell>
        <mxCell id="KR6OFvMDhqYmCtXjkQwM-35" value="" style="group" vertex="1" connectable="0" parent="1">
          <mxGeometry x="136.9620253164557" y="677.1428571428571" width="100.25316455696203" height="73.65079365079364" as="geometry" />
        </mxCell>
        <mxCell id="KR6OFvMDhqYmCtXjkQwM-36" value="derby" style="shape=datastore;whiteSpace=wrap;html=1;strokeWidth=1;fillColor=#ED6D18;fontSize=14;fontColor=#FFFFFF;verticalAlign=top;" vertex="1" parent="KR6OFvMDhqYmCtXjkQwM-35">
          <mxGeometry width="50.12658227848102" height="73.65079365079364" as="geometry" />
        </mxCell>
        <mxCell id="KR6OFvMDhqYmCtXjkQwM-37" value="derby" style="shape=datastore;whiteSpace=wrap;html=1;strokeWidth=1;fillColor=#ED6D18;fontSize=14;fontColor=#FFFFFF;verticalAlign=top;" vertex="1" parent="KR6OFvMDhqYmCtXjkQwM-35">
          <mxGeometry x="50.12658227848102" width="50.12658227848102" height="73.65079365079364" as="geometry" />
        </mxCell>
        <mxCell id="KR6OFvMDhqYmCtXjkQwM-38" value="" style="shape=flexArrow;endArrow=classic;startArrow=classic;html=1;fontSize=14;fontColor=#FFFFFF;width=18.13953488372093;startSize=2.988571428571429;endSize=2.988571428571429;entryX=0.166;entryY=1.003;entryDx=0;entryDy=0;entryPerimeter=0;fillColor=#D4D4D4;" edge="1" parent="1" target="KR6OFvMDhqYmCtXjkQwM-4">
          <mxGeometry width="50" height="50" relative="1" as="geometry">
            <mxPoint x="135.2911392405063" y="308.8888888888889" as="sourcePoint" />
            <mxPoint x="156.17721518987344" y="281.26984126984127" as="targetPoint" />
          </mxGeometry>
        </mxCell>
        <mxCell id="KR6OFvMDhqYmCtXjkQwM-39" value="" style="shape=flexArrow;endArrow=classic;startArrow=classic;html=1;fontSize=14;fontColor=#FFFFFF;width=18.13953488372093;startSize=2.988571428571429;endSize=2.988571428571429;entryX=0.166;entryY=1.003;entryDx=0;entryDy=0;entryPerimeter=0;fillColor=#D4D4D4;" edge="1" parent="1">
          <mxGeometry width="50" height="50" relative="1" as="geometry">
            <mxPoint x="564.7088607594937" y="308.8888888888889" as="sourcePoint" />
            <mxPoint x="564.5751898734178" y="270.4431746031746" as="targetPoint" />
          </mxGeometry>
        </mxCell>
        <mxCell id="KR6OFvMDhqYmCtXjkQwM-41" value="" style="html=1;shadow=0;dashed=0;align=center;verticalAlign=middle;shape=mxgraph.arrows2.arrow;dy=0.52;dx=22.43;direction=south;notch=0;strokeWidth=1;fillColor=#D4D4D4;fontSize=14;fontColor=#FFFFFF;" vertex="1" parent="1">
          <mxGeometry x="199.20253164556962" y="631.1111111111111" width="33.41772151898734" height="36.82539682539682" as="geometry" />
        </mxCell>
        <mxCell id="KR6OFvMDhqYmCtXjkQwM-42" value="" style="html=1;shadow=0;dashed=0;align=center;verticalAlign=middle;shape=mxgraph.arrows2.arrow;dy=0.52;dx=22.43;direction=south;notch=0;strokeWidth=1;fillColor=#D4D4D4;fontSize=14;fontColor=#FFFFFF;" vertex="1" parent="1">
          <mxGeometry x="480.746835443038" y="631.1111111111111" width="33.41772151898734" height="36.82539682539682" as="geometry" />
        </mxCell>
        <mxCell id="KR6OFvMDhqYmCtXjkQwM-43" value="" style="html=1;shadow=0;dashed=0;align=center;verticalAlign=middle;shape=mxgraph.arrows2.arrow;dy=0.52;dx=16.13;direction=south;notch=0;strokeWidth=1;fillColor=#D4D4D4;fontSize=14;fontColor=#FFFFFF;" vertex="1" parent="1">
          <mxGeometry x="349.5822784810127" y="511.4285714285714" width="33.41772151898734" height="36.82539682539682" as="geometry" />
        </mxCell>
        <mxCell id="KR6OFvMDhqYmCtXjkQwM-44" value="" style="html=1;shadow=0;dashed=0;align=center;verticalAlign=middle;shape=mxgraph.arrows2.arrow;dy=0.52;dx=16.84;direction=south;notch=0;strokeWidth=1;fillColor=#D4D4D4;fontSize=14;fontColor=#FFFFFF;" vertex="1" parent="1">
          <mxGeometry x="323.40506329113924" y="270.22222222222223" width="33.41772151898734" height="38.666666666666664" as="geometry" />
        </mxCell>
        <mxCell id="KR6OFvMDhqYmCtXjkQwM-46" value="JPA" style="rounded=0;whiteSpace=wrap;html=1;strokeWidth=2;fontSize=14;fillColor=#f8cecc;strokeColor=#dae8fc;" vertex="1" parent="1">
          <mxGeometry x="144.8987341772152" y="562.063492063492" width="142.02531645569618" height="55.238095238095234" as="geometry" />
        </mxCell>
        <mxCell id="KR6OFvMDhqYmCtXjkQwM-47" value="&lt;font style=&quot;font-size: 14px;&quot;&gt;&lt;b&gt;中间API层&lt;/b&gt;&lt;/font&gt;" style="text;html=1;align=center;verticalAlign=middle;resizable=0;points=[];autosize=1;strokeColor=none;fillColor=none;" vertex="1" parent="1">
          <mxGeometry x="28.354430379746837" y="575.8730158730159" width="90" height="30" as="geometry" />
        </mxCell>
        <mxCell id="KR6OFvMDhqYmCtXjkQwM-48" value="手册目录" style="rounded=0;whiteSpace=wrap;html=1;dashed=1;strokeWidth=2;fillColor=#003B00;fontSize=14;fontColor=#FFFFFF;strokeColor=none;" vertex="1" parent="1">
          <mxGeometry x="253.9240506329114" y="349.3968253968254" width="142.02531645569618" height="42.34920634920635" as="geometry" />
        </mxCell>
        <mxCell id="KR6OFvMDhqYmCtXjkQwM-49" value="用户组" style="rounded=0;whiteSpace=wrap;html=1;dashed=1;strokeWidth=2;fillColor=#003B00;fontSize=14;fontColor=#FFFFFF;strokeColor=none;" vertex="1" parent="1">
          <mxGeometry x="253.9240506329114" y="400.031746031746" width="142.02531645569618" height="42.34920634920635" as="geometry" />
        </mxCell>
        <mxCell id="KR6OFvMDhqYmCtXjkQwM-50" value="索引" style="rounded=0;whiteSpace=wrap;html=1;dashed=1;strokeWidth=2;fillColor=#003B00;fontSize=14;fontColor=#FFFFFF;strokeColor=none;" vertex="1" parent="1">
          <mxGeometry x="253.9240506329114" y="450.2063492063492" width="142.02531645569618" height="42.34920634920635" as="geometry" />
        </mxCell>
        <mxCell id="KR6OFvMDhqYmCtXjkQwM-51" value="用户反馈" style="rounded=0;whiteSpace=wrap;html=1;dashed=1;strokeWidth=2;fillColor=#003B00;fontSize=14;fontColor=#FFFFFF;strokeColor=none;" vertex="1" parent="1">
          <mxGeometry x="426.4430379746836" y="349.3968253968254" width="142.02531645569618" height="42.34920634920635" as="geometry" />
        </mxCell>
        <mxCell id="KR6OFvMDhqYmCtXjkQwM-52" value="" style="group" vertex="1" connectable="0" parent="1">
          <mxGeometry x="504.5569620253164" y="677.1428571428571" width="100.25316455696203" height="73.65079365079364" as="geometry" />
        </mxCell>
        <mxCell id="KR6OFvMDhqYmCtXjkQwM-53" value="es" style="shape=datastore;whiteSpace=wrap;html=1;strokeWidth=1;fillColor=#ED6D18;fontSize=14;fontColor=#FFFFFF;verticalAlign=top;" vertex="1" parent="KR6OFvMDhqYmCtXjkQwM-52">
          <mxGeometry width="50.12658227848102" height="73.65079365079364" as="geometry" />
        </mxCell>
        <mxCell id="KR6OFvMDhqYmCtXjkQwM-54" value="es" style="shape=datastore;whiteSpace=wrap;html=1;strokeWidth=1;fillColor=#ED6D18;fontSize=14;fontColor=#FFFFFF;verticalAlign=top;" vertex="1" parent="KR6OFvMDhqYmCtXjkQwM-52">
          <mxGeometry x="50.12658227848102" width="50.12658227848102" height="73.65079365079364" as="geometry" />
        </mxCell>
        <mxCell id="KR6OFvMDhqYmCtXjkQwM-55" value="书签" style="rounded=0;whiteSpace=wrap;html=1;dashed=1;strokeWidth=2;fillColor=#003B00;fontSize=14;fontColor=#FFFFFF;strokeColor=none;" vertex="1" parent="1">
          <mxGeometry x="426.4430379746836" y="400.031746031746" width="142.02531645569618" height="42.34920634920635" as="geometry" />
        </mxCell>
        <mxCell id="KR6OFvMDhqYmCtXjkQwM-56" value="打印" style="rounded=0;whiteSpace=wrap;html=1;dashed=1;strokeWidth=2;fillColor=#003B00;fontSize=14;fontColor=#FFFFFF;strokeColor=none;" vertex="1" parent="1">
          <mxGeometry x="426.8607594936709" y="450.2063492063492" width="142.02531645569618" height="42.34920634920635" as="geometry" />
        </mxCell>
        <mxCell id="KR6OFvMDhqYmCtXjkQwM-57" value="终端" style="text;html=1;strokeColor=none;fillColor=none;align=center;verticalAlign=middle;whiteSpace=wrap;rounded=0;fontSize=14;" vertex="1" parent="1">
          <mxGeometry x="312.40506329113924" y="180" width="50.12658227848102" height="27.619047619047617" as="geometry" />
        </mxCell>
      </root>
    </mxGraphModel>
  </diagram>
</mxfile>
